<svg width="30" height="30" viewBox="0 0 30 30" fill="none" xmlns="http://www.w3.org/2000/svg">
<g clip-path="url(#clip0)">
<circle cx="15" cy="15" r="15" fill="white"/>
<path d="M2.01234 7.47064C3.35368 5.17242 5.17311 3.35292 7.47112 2.01172C9.76947 0.670461 12.2786 0 15.0002 0C17.7216 0 20.2315 0.670666 22.5294 2.01172C24.8276 3.35285 26.6469 5.17242 27.9883 7.47064C29.3294 9.76878 30 12.2784 30 14.9993C30 18.2679 29.0464 21.207 27.1387 23.8175C25.2313 26.4282 22.7671 28.2347 19.7464 29.2372C19.3948 29.3024 19.1345 29.2565 18.9653 29.1006C18.796 28.9445 18.7114 28.749 18.7114 28.5149C18.7114 28.4759 18.7148 28.1245 18.7213 27.4603C18.728 26.7961 18.7311 26.2167 18.7311 25.7223L19.1803 25.8001C19.4668 25.8525 19.8281 25.8748 20.2643 25.8685C20.7004 25.8624 21.153 25.8167 21.6217 25.7317C22.0905 25.6475 22.5266 25.4522 22.9303 25.1462C23.3338 24.8402 23.6202 24.4397 23.7895 23.9453L23.9848 23.4958C24.115 23.1966 24.3199 22.8642 24.5999 22.4999C24.8799 22.1352 25.163 21.888 25.4495 21.7578L25.5862 21.6599C25.6773 21.5948 25.7619 21.5164 25.8401 21.4253C25.9182 21.3343 25.9767 21.2432 26.0157 21.1519C26.0549 21.0606 26.0225 20.9857 25.9181 20.9269C25.8138 20.8682 25.6253 20.8396 25.3517 20.8396L24.9612 20.898C24.7008 20.9502 24.3787 21.1061 23.9944 21.3666C23.6104 21.627 23.2947 21.9655 23.0473 22.3819C22.7477 22.9159 22.3867 23.3228 21.9633 23.6028C21.5403 23.8828 21.1137 24.0226 20.6841 24.0226C20.2545 24.0226 19.8835 23.99 19.5709 23.9252C19.2586 23.8601 18.9656 23.7622 18.6921 23.6321C18.5749 22.7593 18.2558 22.0889 17.7352 21.6202C18.4773 21.5422 19.1444 21.4248 19.737 21.2686C20.3293 21.1122 20.9414 20.8584 21.5728 20.5066C22.2045 20.1551 22.7286 19.7188 23.1451 19.1982C23.5617 18.6773 23.9036 17.9935 24.1703 17.1474C24.4372 16.3009 24.5706 15.3245 24.5706 14.2178C24.5706 12.642 24.0562 11.3011 23.0276 10.1943C23.5094 9.0096 23.4639 7.68154 22.891 6.21023C22.5134 6.09291 21.9534 6.18095 21.2113 6.4738C20.4691 6.76679 19.9256 7.01778 19.5805 7.22587C19.2353 7.4339 18.9587 7.61019 18.7503 7.75316C17.5392 7.41475 16.2893 7.24551 15.0004 7.24551C13.7114 7.24551 12.4613 7.41475 11.2501 7.75316L10.5079 7.28464C10.0004 6.97201 9.40109 6.68552 8.71141 6.4251C8.02132 6.16481 7.49362 6.09312 7.12887 6.21043C6.54317 7.68181 6.49098 9.0098 6.97297 10.1945C5.9444 11.3013 5.42977 12.6426 5.42977 14.218C5.42977 15.3247 5.56371 16.3042 5.83016 17.1572C6.09695 18.0103 6.44179 18.6934 6.86482 19.208C7.28833 19.7225 7.81575 20.1554 8.44715 20.5068C9.07869 20.8584 9.69094 21.1122 10.2832 21.2685C10.8758 21.4249 11.5429 21.5424 12.285 21.6206C11.6082 22.2063 11.2697 23.1308 11.2697 24.3937V28.5144C11.2697 28.7485 11.1883 28.9439 11.0254 29.1001C10.8626 29.256 10.6056 29.3019 10.254 29.2366C7.23292 28.2342 4.76875 26.4276 2.86135 23.8169C0.954149 21.2064 0.000207901 18.2673 0.000207901 14.9988C0.000892639 12.2782 0.671833 9.76878 2.01234 7.47064Z" fill="black"/>
</g>
<defs>
<clipPath id="clip0">
<rect width="30" height="30" fill="white" transform="matrix(-1 0 0 1 30 0)"/>
</clipPath>
</defs>
</svg>
