<svg width="28" height="28" viewBox="0 0 28 28" fill="none" xmlns="http://www.w3.org/2000/svg">
<g clip-path="url(#clip0)">
<circle cx="14" cy="14" r="14" fill="white"/>
<path d="M1.87819 6.97259C3.1301 4.82759 4.82823 3.12939 6.97304 1.87761C9.11817 0.625763 11.46 0 14.0002 0C16.5401 0 18.8827 0.625955 21.0274 1.87761C23.1724 3.12933 24.8705 4.82759 26.1224 6.97259C27.3741 9.11753 28 11.4598 28 13.9994C28 17.05 27.11 19.7932 25.3295 22.2296C23.5492 24.6663 21.2493 26.3524 18.43 27.288C18.1018 27.349 17.8589 27.3061 17.7009 27.1606C17.5429 27.0149 17.464 26.8324 17.464 26.6139C17.464 26.5775 17.4671 26.2495 17.4732 25.6296C17.4794 25.0097 17.4824 24.4689 17.4824 24.0075L17.9017 24.0801C18.169 24.129 18.5062 24.1498 18.9134 24.1439C19.3203 24.1382 19.7428 24.0956 20.1802 24.0163C20.6178 23.9377 21.0249 23.7554 21.4016 23.4698C21.7782 23.1842 22.0455 22.8104 22.2035 22.3489L22.3858 21.9294C22.5073 21.6502 22.6986 21.3399 22.9599 20.9999C23.2213 20.6595 23.4855 20.4288 23.7528 20.3073L23.8805 20.2159C23.9655 20.1552 24.0444 20.082 24.1174 19.997C24.1903 19.912 24.2449 19.827 24.2814 19.7418C24.3179 19.6565 24.2876 19.5866 24.1903 19.5318C24.0929 19.4769 23.9169 19.4503 23.6616 19.4503L23.2972 19.5048C23.0541 19.5535 22.7534 19.699 22.3948 19.9422C22.0364 20.1852 21.7417 20.5011 21.5108 20.8898C21.2311 21.3882 20.8942 21.768 20.4991 22.0293C20.1042 22.2906 19.7062 22.4211 19.3052 22.4211C18.9042 22.4211 18.5579 22.3907 18.2662 22.3302C17.9747 22.2694 17.7012 22.1781 17.4459 22.0566C17.3365 21.2421 17.0388 20.6163 16.5528 20.1789C17.2454 20.1061 17.8681 19.9965 18.4212 19.8507C18.974 19.7048 19.5453 19.4679 20.1346 19.1395C20.7242 18.8115 21.2133 18.4042 21.6021 17.9183C21.9909 17.4322 22.31 16.794 22.559 16.0042C22.808 15.2142 22.9326 14.3029 22.9326 13.2699C22.9326 11.7992 22.4525 10.5477 21.4924 9.51466C21.9421 8.40896 21.8997 7.16943 21.3649 5.79621C21.0125 5.68672 20.4898 5.76889 19.7972 6.04222C19.1045 6.31567 18.5973 6.54993 18.2751 6.74415C17.9529 6.93831 17.6948 7.10284 17.5003 7.23628C16.3699 6.92043 15.2034 6.76247 14.0004 6.76247C12.7973 6.76247 11.6305 6.92043 10.5001 7.23628L9.8074 6.79899C9.33372 6.50721 8.77435 6.23982 8.13065 5.99676C7.48656 5.75382 6.99405 5.68691 6.65362 5.79641C6.10696 7.16969 6.05824 8.40915 6.50811 9.51485C5.54811 10.5479 5.06779 11.7997 5.06779 13.2701C5.06779 14.303 5.1928 15.2173 5.44148 16.0134C5.69049 16.8096 6.01234 17.4472 6.40717 17.9274C6.80244 18.4076 7.2947 18.8117 7.88401 19.1396C8.47344 19.4678 9.04487 19.7047 9.59766 19.8506C10.1507 19.9966 10.7734 20.1063 11.466 20.1792C10.8343 20.7259 10.5184 21.5887 10.5184 22.7675V26.6134C10.5184 26.8319 10.4424 27.0143 10.2903 27.1601C10.1384 27.3056 9.89857 27.3484 9.5704 27.2875C6.75073 26.3519 4.45083 24.6658 2.67059 22.2291C0.890538 19.7927 0.0001943 17.0495 0.0001943 13.9989C0.000832769 11.4596 0.627043 9.11753 1.87819 6.97259Z" fill="black"/>
</g>
<defs>
<clipPath id="clip0">
<rect width="28" height="28" fill="white" transform="matrix(-1 0 0 1 28 0)"/>
</clipPath>
</defs>
</svg>
