<svg width="30" height="30" viewBox="0 0 30 30" fill="none" xmlns="http://www.w3.org/2000/svg">
<circle cx="15" cy="15" r="15" fill="black"/>
<path d="M15 21.5585C17.1361 21.5585 17.3891 21.5504 18.2327 21.5119C19.0126 21.4763 19.4362 21.346 19.7182 21.2365C20.0916 21.0913 20.3581 20.9179 20.638 20.638C20.9179 20.3581 21.0913 20.0916 21.2364 19.7182C21.346 19.4362 21.4763 19.0126 21.5119 18.2327C21.5504 17.3891 21.5585 17.1361 21.5585 15C21.5585 12.8639 21.5504 12.6109 21.5119 11.7673C21.4763 10.9873 21.346 10.5637 21.2364 10.2818C21.0913 9.90841 20.9179 9.64188 20.638 9.36195C20.3581 9.08202 20.0916 8.90863 19.7182 8.76354C19.4362 8.65398 19.0126 8.52366 18.2327 8.48806C17.3892 8.44957 17.1362 8.44144 15 8.44144C12.8638 8.44144 12.6108 8.44957 11.7673 8.48806C10.9873 8.52366 10.5637 8.65398 10.2818 8.76354C9.90841 8.90863 9.64188 9.08202 9.36195 9.36195C9.08202 9.64188 8.90863 9.90841 8.76354 10.2818C8.65398 10.5637 8.52366 10.9873 8.48806 11.7673C8.44957 12.6109 8.44144 12.8639 8.44144 15C8.44144 17.1361 8.44957 17.3891 8.48806 18.2327C8.52366 19.0126 8.65398 19.4362 8.76354 19.7182C8.90863 20.0916 9.08202 20.3581 9.36195 20.638C9.64188 20.9179 9.90841 21.0913 10.2818 21.2365C10.5637 21.346 10.9873 21.4763 11.7673 21.5119C12.6109 21.5504 12.8639 21.5585 15 21.5585ZM15 23C12.8273 23 12.5549 22.9908 11.7016 22.9519C10.8501 22.913 10.2686 22.7778 9.75966 22.58C9.23359 22.3755 8.78745 22.102 8.34271 21.6573C7.89797 21.2125 7.62442 20.7664 7.41997 20.2403C7.2222 19.7314 7.08698 19.1499 7.04811 18.2984C7.00918 17.4451 7 17.1727 7 15C7 12.8273 7.00918 12.5549 7.04811 11.7016C7.08698 10.8501 7.2222 10.2686 7.41997 9.75966C7.62442 9.23363 7.89797 8.78745 8.34271 8.34271C8.78745 7.89797 9.23359 7.62442 9.75966 7.41997C10.2686 7.2222 10.8501 7.08698 11.7016 7.04811C12.5549 7.00918 12.8273 7 15 7C17.1727 7 17.4451 7.00918 18.2984 7.04811C19.1499 7.08698 19.7314 7.2222 20.2403 7.41997C20.7664 7.62442 21.2125 7.89797 21.6573 8.34271C22.102 8.78745 22.3755 9.23359 22.58 9.75966C22.7778 10.2686 22.913 10.8501 22.9519 11.7016C22.9908 12.5549 23 12.8273 23 15C23 17.1727 22.9908 17.4451 22.9519 18.2984C22.913 19.1499 22.7778 19.7314 22.58 20.2403C22.3755 20.7664 22.102 21.2125 21.6573 21.6573C21.2125 22.102 20.7664 22.3755 20.2403 22.58C19.7314 22.7778 19.1499 22.913 18.2984 22.9519C17.4451 22.9908 17.1727 23 15 23ZM15 19.1081C12.7311 19.1081 10.8919 17.2688 10.8919 15C10.8919 12.7311 12.7311 10.8919 15 10.8919C17.2688 10.8919 19.1081 12.7311 19.1081 15C19.1081 17.2688 17.2688 19.1081 15 19.1081ZM15 12.3333C13.5272 12.3333 12.3333 13.5272 12.3333 15C12.3333 16.4727 13.5272 17.6667 15 17.6667C16.4727 17.6667 17.6667 16.4727 17.6667 15C17.6667 13.5272 16.4727 12.3333 15 12.3333ZM20.2304 19.2704C20.2304 18.7402 19.8006 18.3104 19.2704 18.3104C18.7402 18.3104 18.3104 18.7402 18.3104 19.2704C18.3104 19.8006 18.7402 20.2304 19.2704 20.2304C19.8006 20.2304 20.2304 19.8006 20.2304 19.2704Z" fill="white"/>
</svg>
