<svg width="30" height="30" viewBox="0 0 30 30" fill="none" xmlns="http://www.w3.org/2000/svg">
<circle cx="15" cy="15" r="15" fill="black"/>
<path d="M22.3718 6H7.62825C6.729 6 6 6.729 6 7.62825V22.3717C6 23.271 6.729 24 7.62825 24H22.3717C23.271 24 24 23.271 24 22.3717V7.62825C24 6.729 23.271 6 22.3718 6ZM11.57 21.5424C11.57 21.8041 11.3578 22.0162 11.0961 22.0162H9.07908C8.81738 22.0162 8.60524 21.8041 8.60524 21.5424V13.0871C8.60524 12.8253 8.81738 12.6132 9.07908 12.6132H11.0961C11.3578 12.6132 11.57 12.8253 11.57 13.0871V21.5424ZM10.0876 11.8162C9.02932 11.8162 8.1714 10.9582 8.1714 9.89997C8.1714 8.84169 9.02932 7.98377 10.0876 7.98377C11.1459 7.98377 12.0038 8.84169 12.0038 9.89997C12.0038 10.9582 11.1459 11.8162 10.0876 11.8162ZM22.1109 21.5806C22.1109 21.8212 21.9159 22.0162 21.6753 22.0162H19.5108C19.2702 22.0162 19.0752 21.8212 19.0752 21.5806V17.6145C19.0752 17.0229 19.2487 15.0219 17.529 15.0219C16.1951 15.0219 15.9245 16.3915 15.8702 17.0062V21.5806C15.8702 21.8212 15.6751 22.0162 15.4345 22.0162H13.3411C13.1005 22.0162 12.9055 21.8212 12.9055 21.5806V13.0489C12.9055 12.8083 13.1005 12.6132 13.3411 12.6132H15.4345C15.6751 12.6132 15.8702 12.8083 15.8702 13.0489V13.7866C16.3648 13.0443 17.0999 12.4713 18.665 12.4713C22.1308 12.4713 22.1109 15.7093 22.1109 17.4883V21.5806Z" fill="white"/>
</svg>
